<svg xmlns="http://www.w3.org/2000/svg" viewBox="0 0 100 100" role="img" aria-label="MachReach">
  <defs>
    <linearGradient id="mr_bg" x1="0" y1="0" x2="0.3" y2="1">
      <stop offset="0" stop-color="#3A2A6E"/>
      <stop offset="0.55" stop-color="#5B4694"/>
      <stop offset="1" stop-color="#FF7A3D"/>
    </linearGradient>
    <radialGradient id="mr_gloss" cx="0.5" cy="0.1" r="0.9">
      <stop offset="0" stop-color="#fff" stop-opacity="0.40"/>
      <stop offset="0.6" stop-color="#fff" stop-opacity="0"/>
    </radialGradient>
  </defs>

  <!-- squircle background -->
  <path d="M50 3 C19 3 3 19 3 50 C3 81 19 97 50 97 C81 97 97 81 97 50 C97 19 81 3 50 3 Z" fill="url(#mr_bg)"/>

  <!-- stars -->
  <path d="M23 24 C23.768 26.72 24.28 26.72 27 28 C24.28 29.28 23.768 29.28 23 32 C22.232 29.28 21.72 29.28 19 28 C21.72 26.72 22.232 26.72 23 24 Z" fill="#fff" opacity="0.9"/>
  <path d="M79 19 C79.96 23.4 80.6 23.4 84 24 C80.6 24.6 79.96 24.6 79 29 C78.04 24.6 77.4 24.6 74 24 C77.4 23.4 78.04 23.4 79 19 Z" fill="#fff" opacity="0.85"/>
  <circle cx="74" cy="44" r="1.8" fill="#fff" opacity="0.6"/>

  <!-- flame (behind book valley) -->
  <path d="M50 14 C55 26 67 33 67 46 C67 57 59 64 50 64 C41 64 33 57 33 46 C33 33 45 26 50 14 Z" fill="#FF7A3D"/>
  <path d="M50 33 C53 39 60 42 60 49 C60 55 55 59 50 59 C45 59 40 55 40 49 C40 42 47 39 50 33 Z" fill="#F2A156"/>
  <path d="M50 45 C52 49 56 51 56 54 C56 57 53 59 50 59 C47 59 44 57 44 54 C44 51 48 49 50 45 Z" fill="#FFE9C9"/>

  <!-- open book pages -->
  <path d="M50 82 C41 73 29 70 16 72 L16 50 C29 48 41 51 50 58 Z" fill="#FFF6E4"/>
  <path d="M50 82 C59 73 71 70 84 72 L84 50 C71 48 59 51 50 58 Z" fill="#F0DFC0"/>

  <!-- spine -->
  <path d="M50 58 L50 82" stroke="rgba(58,42,110,0.35)" stroke-width="1.6" fill="none"/>

  <!-- gloss -->
  <ellipse cx="50" cy="20" rx="54" ry="30" fill="url(#mr_gloss)"/>

  <!-- border -->
  <path d="M50 3 C19 3 3 19 3 50 C3 81 19 97 50 97 C81 97 97 81 97 50 C97 19 81 3 50 3 Z" fill="none" stroke="rgba(255,255,255,0.22)" stroke-width="1.4"/>
</svg>
